# Blender v2.91.0 OBJ File: ''
# www.blender.org
mtllib table.mtl
o table
v 10.246199 -0.202012 -10.246201
v -10.246201 -0.202009 -10.246199
v -10.246199 -0.202016 10.246201
v 10.246201 -0.202019 10.246199
v -10.246201 -0.988015 -10.246199
v -10.246199 -0.988022 10.246201
v 10.246201 -0.988025 10.246199
v 10.246199 -0.988018 -10.246201
vt 0.000000 0.500000
vt 0.000000 1.000000
vt 0.500000 1.000000
vt 0.500000 0.500000
vt 0.538356 0.000000
vt 0.538356 0.500000
vt 0.557534 0.500000
vt 0.557534 0.000000
vt 0.519178 0.500000
vt 0.519178 0.000000
vt 0.500000 0.000000
vt 0.500000 0.500000
vt 0.000000 0.000000
vt 0.000000 0.500000
vt 0.500000 0.500000
vt 0.500000 0.000000
vt 0.576712 0.500000
vt 0.576712 0.000000
vt 0.557534 0.500000
vt 0.519178 0.500000
vt 0.538356 0.500000
vt 0.538356 0.000000
vn 0.0000 1.0000 0.0000
vn -1.0000 0.0000 0.0000
vn 0.0000 0.0000 1.0000
vn -0.0000 -1.0000 -0.0000
vn -0.0000 0.0000 -1.0000
vn 1.0000 0.0000 -0.0000
usemtl æè´¨
s 1
f 1/1/1 2/2/1 3/3/1 4/4/1
f 5/5/2 6/6/2 3/7/2 2/8/2
f 6/9/3 7/10/3 4/11/3 3/12/3
f 7/13/4 6/14/4 5/15/4 8/16/4
f 8/17/5 5/18/5 2/8/5 1/19/5
f 7/10/6 8/20/6 1/21/6 4/22/6
